<svg width="512" height="256" viewBox="0 0 1024 512" fill="none" xmlns="http://www.w3.org/2000/svg">
<path d="M137.502 88.6444C137.502 95.071 132.295 100.281 125.871 100.281C119.447 100.281 114.24 95.071 114.24 88.6444C114.24 82.2178 119.447 77.0081 125.871 77.0081C132.295 77.0081 137.502 82.2178 137.502 88.6444Z" fill="#3683FC"/>
<path fill-rule="evenodd" clip-rule="evenodd" d="M109.456 115.152C110.884 112.421 112.055 111.128 113.157 110.258C113.839 109.719 114.555 109.285 115.486 108.792C112.386 113.123 110.441 119.364 110.441 126.302C110.441 128.216 110.589 130.077 110.868 131.86C110.832 133.282 110.625 149.601 110.596 151.641C110.582 153.587 110.571 155.278 110.564 156.483L110.553 158.408L110.552 158.63L111.432 173.265L111.504 173.261C111.498 173.346 111.495 173.433 111.495 173.521C111.495 175.065 112.436 176.296 113.614 177.08C114.8 177.869 116.361 178.313 118.016 178.313C119.671 178.313 121.232 177.869 122.419 177.08C123.596 176.296 124.537 175.065 124.537 173.521C124.537 173.163 124.486 172.821 124.394 172.498L125.164 172.453L124.311 158.261L124.367 149.869C124.864 149.943 125.821 150 126.33 150C126.614 150 127.37 149.898 128.094 149.738L128.303 158.37L127.698 172.574L128.035 172.588C127.958 172.884 127.916 173.196 127.916 173.521C127.916 175.065 128.857 176.296 130.034 177.08C131.221 177.869 132.782 178.313 134.437 178.313C136.092 178.313 137.653 177.869 138.84 177.08C140.017 176.296 140.958 175.065 140.958 173.521C140.958 173.387 140.951 173.255 140.937 173.125L141.442 173.146L142.066 158.498C142.066 158.498 141.948 153.457 141.9 151.512C141.9 151.512 141.418 134.705 141.357 133.283C141.312 132.23 141.251 130.813 141.126 129.98C141.248 128.781 141.311 127.553 141.311 126.302C141.311 119.735 139.569 113.793 136.754 109.503C136.398 108.961 136.025 108.446 135.637 107.958C135.586 107.895 135.535 107.832 135.484 107.769C135.59 107.829 135.693 107.886 135.794 107.943L135.797 107.944C137.322 108.797 138.224 109.334 139.075 110.094C140.015 110.932 141.065 112.23 142.363 115.045C142.595 115.548 142.727 116.013 142.779 116.428C143.078 118.849 142.839 121.801 142.409 127.5C142.911 127.5 143.042 127.3 143.788 127.395C143.701 127.697 143.654 128.015 143.654 128.345C143.654 130.235 145.186 131.767 147.075 131.767C148.965 131.767 150.496 130.235 150.496 128.345C150.496 128.192 150.486 128.042 150.467 127.895C150.95 128 151.453 128.5 151.955 128.5C152.373 122.967 152.772 118.779 152.336 115.258C151.81 111 147.936 105.129 145.504 102.959C143.68 101.331 141.651 100.211 139.856 99.221C139.622 99.0919 139.392 98.965 139.167 98.8394L138.826 99.4452L126.833 101C126.116 101.072 125.538 101.088 124.823 101L114.561 99.5512L114.15 98.7304C112.141 99.7161 109.162 101.179 107.173 102.749C106.077 103.614 99.1978 109.5 99.198 119C99.1981 121.89 99.095 123.634 99.7003 128.345C100.203 128.5 100.633 127.992 101.27 127.929C101.254 128.065 101.245 128.204 101.245 128.345C101.245 130.235 102.777 131.767 104.666 131.767C106.556 131.767 108.087 130.235 108.087 128.345C108.087 128.005 108.038 127.677 107.946 127.367C108.397 127.246 108.744 127.5 109.247 127.5C108.77 121.883 108.242 117 109.456 115.152Z" fill="#3683FC"/>
<path d="M392.313 87.344C395.692 85.9432 399.315 85.2219 402.974 85.2219C406.633 85.2219 410.256 85.9432 413.635 87.344C417.014 88.7449 420.084 90.7978 422.668 93.3847C425.254 95.9701 427.304 99.039 428.702 102.416C430.101 105.793 430.821 109.412 430.821 113.066C430.821 116.721 430.101 120.34 428.702 123.717C427.304 127.094 425.254 130.163 422.668 132.748L382.346 173.088C381.83 173.604 381.128 173.895 380.396 173.895C379.663 173.895 378.961 173.604 378.445 173.088L338.123 132.748C332.903 127.526 329.973 120.446 329.973 113.066C329.973 105.687 332.903 98.6067 338.123 93.3842C343.344 88.1613 350.428 85.2244 357.817 85.2244C365.207 85.2244 372.291 88.1613 377.511 93.3842L380.396 96.2697L383.279 93.3847C385.864 90.798 388.934 88.7448 392.313 87.344Z" fill="#3683FC"/>
<path fill-rule="evenodd" clip-rule="evenodd" d="M329.561 16.522C348.932 6.74415 370.519 2.13161 392.216 3.13471C413.913 4.1378 434.978 10.7223 453.354 22.2453C471.73 33.7683 486.79 49.836 497.062 68.8799C507.335 87.9238 512.47 109.293 511.966 130.901C511.462 152.51 505.336 173.619 494.186 192.168C483.036 210.717 467.243 226.072 448.35 236.733C429.456 247.395 408.107 253 386.387 253V245C406.717 245 426.699 239.754 444.384 229.775C462.069 219.795 476.85 205.423 487.287 188.061C497.723 170.699 503.457 150.941 503.929 130.716C504.401 110.49 499.595 90.4887 489.979 72.6636C480.364 54.8385 466.268 39.7991 449.068 29.0136C431.868 18.228 412.151 12.065 391.843 11.1261C371.535 10.1872 351.329 14.5045 333.198 23.6566C315.067 32.8087 299.631 46.4828 288.396 63.3439L281.696 58.923C293.699 40.909 310.191 26.2999 329.561 16.522ZM385.009 17.0085C404.835 16.7649 424.367 21.7842 441.595 31.5496C458.823 41.3149 473.124 55.4734 483.026 72.567C492.927 89.6606 498.071 109.072 497.928 128.801C497.785 148.531 492.36 167.866 482.212 184.815C472.063 201.765 457.558 215.717 440.19 225.233C422.822 234.75 403.219 239.488 383.399 238.96C363.58 238.432 344.26 232.656 327.429 222.227C310.527 211.755 288.708 191.246 271.706 155.2C268.067 147.486 264.949 139.158 261.706 130.497C259.762 125.304 257.773 119.991 255.6 114.619C249.709 100.056 242.182 84.2268 229.852 66.8031L236.425 62.1969C249.217 80.2732 257.015 96.6943 263.058 111.631C265.42 117.471 267.473 122.965 269.433 128.208C272.564 136.585 275.455 144.321 278.983 151.8C295.345 186.488 316.13 205.803 331.678 215.436C347.296 225.113 365.223 230.473 383.615 230.963C402.006 231.453 420.196 227.057 436.312 218.226C452.429 209.395 465.888 196.449 475.305 180.721C484.722 164.993 489.756 147.051 489.889 128.743C490.022 110.436 485.249 92.4238 476.061 76.5622C466.873 60.7005 453.603 47.5625 437.616 38.5009C421.63 29.4394 403.505 24.7818 385.109 25.0078C366.712 25.2339 348.709 30.3353 332.952 39.7868L328.802 32.9353C345.782 22.7497 365.184 17.252 385.009 17.0085ZM374.517 31.6652C387.64 30.1239 400.942 31.2677 413.604 35.0266C426.267 38.7855 438.025 45.0801 448.154 53.5241C458.284 61.968 466.573 72.383 472.512 84.1298C478.451 95.8767 481.915 108.707 482.69 121.834C483.466 134.961 481.538 148.108 477.024 160.466C472.509 172.825 465.504 184.135 456.439 193.702C447.374 203.27 436.439 210.892 424.306 216.102C412.248 221.28 399.128 224.368 385.772 223.998C363.953 223.395 343.456 217.423 325.189 202.637C306.989 187.905 291.321 164.685 278.604 130.149L286.153 127.396C298.559 161.088 313.541 182.897 330.262 196.43C346.914 209.909 365.609 215.437 385.996 216.001C397.964 216.333 409.919 213.567 421.121 208.757C432.248 203.979 442.276 196.988 450.59 188.214C458.904 179.44 465.328 169.067 469.468 157.733C473.608 146.399 475.377 134.343 474.665 122.304C473.954 110.265 470.777 98.4983 465.33 87.7253C459.884 76.9523 452.282 67.4007 442.992 59.6568C433.702 51.9129 422.919 46.1401 411.306 42.6928C399.693 39.2455 387.495 38.1965 375.46 39.6101L374.517 31.6652Z" fill="#3683FC"/>
<path fill-rule="evenodd" clip-rule="evenodd" d="M182.439 239.478C163.068 249.256 141.481 253.868 119.784 252.865C98.087 251.862 77.0222 245.278 58.6461 233.755C40.27 222.232 25.2104 206.164 14.9376 187.12C4.66471 168.076 -0.470284 146.707 0.0338537 125.099C0.537992 103.49 6.66409 82.3813 17.814 63.8324C28.9639 45.2834 44.7566 29.9285 63.6503 19.2665C82.5441 8.6046 103.893 3.00006 125.613 3.00006L125.613 11.0001C105.283 11.0001 85.3005 16.2459 67.616 26.2255C49.9314 36.205 35.1495 50.5773 24.7132 67.9391C14.2769 85.3009 8.54284 105.059 8.07096 125.284C7.59908 145.51 12.4054 165.511 22.0208 183.336C31.6362 201.162 45.7319 216.201 62.932 226.986C80.1321 237.772 99.8486 243.935 120.157 244.874C140.465 245.813 160.671 241.495 178.802 232.343C196.933 223.191 212.369 209.517 223.604 192.656L230.304 197.077C218.301 215.091 201.809 229.7 182.439 239.478ZM126.991 238.992C107.165 239.235 87.6328 234.216 70.4048 224.45C53.1767 214.685 38.8756 200.527 28.9741 183.433C19.0727 166.339 13.9287 146.928 14.0718 127.199C14.2149 107.469 19.64 88.1342 29.7884 71.1846C39.9368 54.2349 54.4418 40.2834 71.8097 30.7666C89.1776 21.2497 108.781 16.5115 128.601 17.0399C148.42 17.5682 167.74 23.344 184.571 33.7726C201.473 44.2447 223.292 64.7539 240.294 100.8C243.933 108.514 247.051 116.842 250.294 125.503C252.238 130.696 254.227 136.009 256.4 141.381C262.291 155.944 269.818 171.773 282.148 189.197L275.575 193.803C262.783 175.727 254.985 159.306 248.942 144.369C246.58 138.529 244.527 133.035 242.567 127.792C239.436 119.415 236.545 111.679 233.017 104.2C216.655 69.5116 195.87 50.197 180.322 40.5637C164.704 30.8868 146.777 25.5273 128.385 25.037C109.994 24.5467 91.8036 28.9434 75.6875 37.7744C59.5713 46.6053 46.1117 59.5514 36.6947 75.2794C27.2777 91.0074 22.2436 108.949 22.1108 127.257C21.978 145.564 26.7513 163.576 35.9392 179.438C45.127 195.3 58.3974 208.438 74.3838 217.499C90.3702 226.561 108.495 231.218 126.891 230.992C145.288 230.766 163.291 225.665 179.048 216.213L183.198 223.065C166.218 233.25 146.816 238.748 126.991 238.992ZM137.483 224.335C124.36 225.876 111.058 224.732 98.3955 220.973C85.7327 217.214 73.9755 210.92 63.8456 202.476C53.7157 194.032 45.4268 183.617 39.4879 171.87C33.549 160.123 30.0854 147.293 29.3096 134.166C28.5337 121.039 30.4622 107.892 34.9764 95.5336C39.4907 83.175 46.4955 71.8649 55.561 62.2976C64.6264 52.7303 75.5611 45.1077 87.6939 39.8976C99.752 34.7197 112.872 31.632 126.228 32.0016C148.047 32.6055 168.543 38.5774 186.811 53.3634C205.011 68.0947 220.679 91.3152 233.396 125.851L225.847 128.604C213.441 94.9125 198.459 73.1033 181.738 59.5697C165.086 46.0908 146.391 40.5627 126.004 39.9985C114.036 39.6673 102.081 42.4327 90.8792 47.2429C79.7522 52.021 69.724 59.0117 61.4101 67.7859C53.0962 76.5601 46.6721 86.9325 42.532 98.2666C38.392 109.601 36.6234 121.657 37.3349 133.696C38.0464 145.735 41.223 157.502 46.6695 168.275C52.1161 179.048 59.7177 188.599 69.0079 196.343C78.298 204.087 89.0805 209.86 100.694 213.307C112.307 216.754 124.505 217.804 136.54 216.39L137.483 224.335Z" fill="#3683FC"/>
</svg>
