 <svg version="1.0" xmlns="http://www.w3.org/2000/svg" width="700.000000pt" height="653.000000pt" viewBox="0 0 700.000000 653.000000" preserveAspectRatio="xMidYMid meet">
<metadata>
Created by potrace 1.12, written by Peter Selinger 2001-2015
</metadata>
<g transform="translate(0.000000,653.000000) scale(0.100000,-0.100000)" fill="#000000" stroke="none">
<path d="M6675 6109 c-5 -7 -717 -10 -2392 -8 -1377 1 -2387 -2 -2391 -7 -4
-5 -5 -74 -2 -154 l5 -145 335 -1 c1943 -3 4494 -3 4498 0 2 3 5 73 5 157 0
119 -3 153 -14 160 -19 12 -36 11 -44 -2z"></path>
<path d="M6679 3409 c-8 -5 -1384 -9 -3214 -9 l-3200 0 -3 -147 c-1 -80 -7
-152 -12 -158 -7 -8 -6 -16 3 -24 11 -8 845 -11 3242 -11 1776 0 3230 2 3233
5 7 7 5 335 -2 343 -11 10 -32 10 -47 1z"></path>
<path d="M3527 682 c-34 -4 -55 -37 -31 -50 13 -7 15 -27 12 -128 -3 -109 -1
-120 18 -141 22 -24 44 -30 44 -13 0 7 525 10 1555 10 l1555 0 0 -21 c0 -16 4
-19 23 -13 12 3 23 8 25 9 5 5 6 335 0 340 -5 6 -3153 12 -3201 7z"></path>
</g>
</svg>